# xmcd CD database file
#
# Track frame offsets:
#	150
#	17028
#	37124
#	49063
#	71608
#	88656
#	102504
#	114450
#	131969
#	152494
#	169455
#	187629
#
# Disc length: 2676 seconds
#
# Revision: 1
# Processed by: cddbd v1.5.2PL0 Copyright (c) Steve Scherf et al.
# Submitted via: CDex 1.51
#
DISCID=a10a720c
DTITLE=Hot Tamale and the Red Hots - Hot Off The Grill
DYEAR=2007
DGENRE=Blues
TTITLE0=Let The Good Times Roll
TTITLE1=Angel Of Mercy
TTITLE2=I've Had Enuf
TTITLE3=I'm a MightyTight Woman
TTITLE4=I Don't Want No Man
TTITLE5=Guilty
TTITLE6=I'm A Woman
TTITLE7=You've Got To Use What You've Got
TTITLE8=Burn
TTITLE9=Little By Little
TTITLE10=Bloodshot Eyes
TTITLE11=I Want To Do More (For My Baby)
EXTD=YEAR: 2007
EXTT0=
EXTT1=
EXTT2=
EXTT3=
EXTT4=
EXTT5=
EXTT6=
EXTT7=
EXTT8=
EXTT9=
EXTT10=
EXTT11=
PLAYORDER=
